<?xml version="1.0" encoding="UTF-8" standalone="no"?>
<!-- Created with Inkscape (http://www.inkscape.org/) -->

<svg
   xmlns:dc="http://purl.org/dc/elements/1.1/"
   xmlns:cc="http://creativecommons.org/ns#"
   xmlns:rdf="http://www.w3.org/1999/02/22-rdf-syntax-ns#"
   xmlns:svg="http://www.w3.org/2000/svg"
   xmlns="http://www.w3.org/2000/svg"
   xmlns:sodipodi="http://sodipodi.sourceforge.net/DTD/sodipodi-0.dtd"
   xmlns:inkscape="http://www.inkscape.org/namespaces/inkscape"
   width="64px"
   height="64px"
   id="svg2987"
   version="1.1"
   inkscape:version="0.48.3.1 r9886"
   sodipodi:docname="sort_exifDate.svg"
   inkscape:export-filename="C:\Entwicklung\FancyFileRenamer\FancyFileRenamerWpf\Images\sort_exif.png"
   inkscape:export-xdpi="45"
   inkscape:export-ydpi="45">
  <defs
     id="defs2989" />
  <sodipodi:namedview
     id="base"
     pagecolor="#ffffff"
     bordercolor="#666666"
     borderopacity="1.0"
     inkscape:pageopacity="0.0"
     inkscape:pageshadow="2"
     inkscape:zoom="3.8890873"
     inkscape:cx="16.117328"
     inkscape:cy="15.703662"
     inkscape:current-layer="layer1"
     showgrid="true"
     inkscape:document-units="px"
     inkscape:grid-bbox="true"
     inkscape:window-width="1280"
     inkscape:window-height="778"
     inkscape:window-x="-8"
     inkscape:window-y="-8"
     inkscape:window-maximized="1" />
  <metadata
     id="metadata2992">
    <rdf:RDF>
      <cc:Work
         rdf:about="">
        <dc:format>image/svg+xml</dc:format>
        <dc:type
           rdf:resource="http://purl.org/dc/dcmitype/StillImage" />
        <dc:title></dc:title>
      </cc:Work>
    </rdf:RDF>
  </metadata>
  <g
     id="layer1"
     inkscape:label="Layer 1"
     inkscape:groupmode="layer">
    <g
       id="g3961"
       transform="matrix(1.3882547,0,0,1.3882547,-0.63752391,-4.3203297)">
      <rect
         rx="1.0007745"
         ry="0.98940217"
         y="9.956172"
         x="2.1737289"
         height="24.49044"
         width="32.653919"
         id="rect2985"
         style="fill:none;stroke:#ff00ff;stroke-width:1.44065785;stroke-miterlimit:4;stroke-opacity:1;stroke-dasharray:none" />
      <rect
         ry="0.90886962"
         y="5.0397162"
         x="1.6635115"
         height="3.5715225"
         width="33.674355"
         id="rect2987"
         style="fill:#ff00ff;stroke:none" />
      <rect
         rx="0"
         ry="2.5974708"
         y="12.739177"
         x="5.6988697"
         height="5.1949415"
         width="5.3804755"
         id="rect2989"
         style="fill:#ff00ff;stroke:none" />
      <rect
         rx="0"
         ry="2.5974708"
         y="12.739177"
         x="12.439926"
         height="5.1949415"
         width="5.3804755"
         id="rect2989-1"
         style="fill:#ff00ff;stroke:none" />
      <rect
         rx="0"
         ry="2.5974708"
         y="12.739177"
         x="19.180984"
         height="5.1949415"
         width="5.3804755"
         id="rect2989-7"
         style="fill:#ff00ff;stroke:none" />
      <rect
         rx="0"
         ry="2.5974708"
         y="12.739177"
         x="25.922041"
         height="5.1949415"
         width="5.3804755"
         id="rect2989-4"
         style="fill:#ff00ff;stroke:none" />
      <rect
         rx="0"
         ry="2.5974708"
         y="19.603922"
         x="5.6988697"
         height="5.1949415"
         width="5.3804755"
         id="rect2989-0"
         style="fill:#ff00ff;stroke:none" />
      <rect
         rx="0"
         ry="2.5974708"
         y="19.603922"
         x="12.439929"
         height="5.1949415"
         width="5.3804755"
         id="rect2989-9"
         style="fill:#ff00ff;stroke:none" />
      <rect
         rx="0"
         ry="2.5974708"
         y="19.603922"
         x="19.180983"
         height="5.1949415"
         width="5.3804755"
         id="rect2989-48"
         style="fill:#ff00ff;stroke:none" />
      <rect
         rx="0"
         ry="2.5974708"
         y="19.603922"
         x="25.922043"
         height="5.1949415"
         width="5.3804755"
         id="rect2989-8"
         style="fill:#ff00ff;stroke:none" />
      <rect
         rx="0"
         ry="2.5974708"
         y="26.468666"
         x="25.922043"
         height="5.1949415"
         width="5.3804755"
         id="rect2989-2"
         style="fill:#ff00ff;stroke:none" />
      <rect
         rx="0"
         ry="2.5974708"
         y="26.468666"
         x="19.180983"
         height="5.1949415"
         width="5.3804755"
         id="rect2989-45"
         style="fill:#ff00ff;stroke:none" />
      <rect
         rx="0"
         ry="2.5974708"
         y="26.468666"
         x="12.439929"
         height="5.1949415"
         width="5.3804755"
         id="rect2989-5"
         style="fill:#ff00ff;stroke:none" />
      <rect
         rx="0"
         ry="2.5974708"
         y="26.468666"
         x="5.6988697"
         height="5.1949415"
         width="5.3804755"
         id="rect2989-17"
         style="fill:#ff00ff;stroke:none" />
    </g>
    <path
       style="fill:#000000"
       d="m 24.609063,61.096053 c 0,-0.07152 -0.175793,-0.130211 -0.390651,-0.130211 -0.214857,0 -0.390634,-0.05852 -0.390634,-0.130212 0,-0.07152 -0.09,-0.130211 -0.199903,-0.130211 -0.180773,0 -0.614525,-0.2345 -1.081986,-0.584942 -0.460719,-0.345411 -1.582829,-1.492006 -1.582829,-1.617393 0,-0.07785 -0.05852,-0.141504 -0.130212,-0.141504 -0.07152,0 -0.130211,-0.117207 -0.130211,-0.260423 0,-0.143215 -0.04397,-0.26044 -0.0977,-0.26044 -0.05373,0 -0.214874,-0.366234 -0.358089,-0.813846 -0.250465,-0.782723 -0.260406,-1.172262 -0.260406,-10.189254 0,-8.836749 0.01369,-9.418457 0.245691,-10.124165 0.135173,-0.4118 0.296286,-0.748741 0.358107,-0.748741 0.06177,0 0.112416,-0.117207 0.112416,-0.260423 0,-0.143215 0.05869,-0.260439 0.130211,-0.260439 0.07169,0 0.130212,-0.08778 0.130212,-0.195317 0,-0.107455 0.351587,-0.546888 0.781285,-0.976603 0.429715,-0.429714 0.869182,-0.781285 0.976619,-0.781285 0.107455,0 0.195318,-0.05852 0.195318,-0.130212 0,-0.07169 0.117207,-0.130211 0.260422,-0.130211 0.143216,0 0.26044,-0.05869 0.26044,-0.130211 0,-0.07169 0.146467,-0.130212 0.325529,-0.130212 0.179044,0 0.325528,-0.0515 0.325528,-0.114469 0,-0.19554 1.886251,-0.406462 3.635104,-0.406462 l 1.671257,0 1.183144,-1.171936 c 0.650732,-0.644555 1.222464,-1.171937 1.270528,-1.171937 0.04808,0 0.182159,-0.105914 0.29798,-0.235304 0.254691,-0.2846 1.409842,-0.936615 1.659365,-0.936615 0.09839,0 0.178908,-0.05869 0.178908,-0.130212 0,-0.07169 0.205105,-0.130211 0.455757,-0.130211 0.250653,0 0.455757,-0.05869 0.455757,-0.130211 0,-0.0847 1.931509,-0.130212 5.534103,-0.130212 3.602595,0 5.534103,0.04534 5.534103,0.130212 0,0.07152 0.234381,0.130211 0.520863,0.130211 0.286465,0 0.520845,0.05852 0.520845,0.130211 0,0.07152 0.08059,0.130212 0.178925,0.130212 0.249524,0 1.404675,0.652015 1.659365,0.936615 0.115839,0.129356 0.25209,0.235304 0.302823,0.235304 0.05082,0 0.626692,0.527382 1.279904,1.171937 l 1.187644,1.171936 1.661898,0 c 1.740897,0 3.625745,0.211299 3.625745,0.406462 0,0.0628 0.146466,0.114469 0.325528,0.114469 0.179045,0 0.325546,0.05852 0.325546,0.130212 0,0.07152 0.117207,0.130211 0.260423,0.130211 0.143215,0 0.260422,0.05852 0.260422,0.130211 0,0.07152 0.09154,0.130212 0.203325,0.130212 0.245605,0 1.74988,1.527391 1.74988,1.776761 0,0.09702 0.05869,0.176444 0.130211,0.176444 0.07152,0 0.130212,0.08453 0.130212,0.187891 0,0.103347 0.114469,0.381788 0.254228,0.618786 0.492134,0.834089 0.539,1.88478 0.498448,11.17424 -0.03696,8.455081 -0.05219,8.955702 -0.292881,9.634666 -0.139622,0.393902 -0.300256,0.73572 -0.356858,0.759589 -0.05664,0.02396 -0.103006,0.155706 -0.103006,0.292984 0,0.137227 -0.05852,0.249575 -0.130211,0.249575 -0.07152,0 -0.130211,0.09137 -0.130211,0.203 0,0.111732 -0.05852,0.166828 -0.130212,0.122511 -0.07152,-0.04432 -0.130211,-0.01369 -0.130211,0.06759 0,0.359116 -1.961743,1.95069 -2.404376,1.95069 -0.110021,0 -0.199903,0.05869 -0.199903,0.130211 0,0.07169 -0.175794,0.130211 -0.390634,0.130211 -0.214857,0 -0.390651,0.05869 -0.390651,0.130212 0,0.08607 -5.382196,0.130211 -15.886147,0.130211 -10.503951,0 -15.886146,-0.04415 -15.886146,-0.130211 z m 17.578929,-8.203505 c 0,-0.07152 0.17232,-0.130211 0.382951,-0.130211 0.210631,0 0.419175,-0.05869 0.46344,-0.130211 0.04415,-0.07152 0.194205,-0.130212 0.333228,-0.130212 0.138938,0 0.252723,-0.04928 0.252723,-0.109336 0,-0.06006 0.23373,-0.22124 0.519374,-0.35809 0.285644,-0.136884 0.520041,-0.292762 0.520863,-0.346489 7.69e-4,-0.05373 0.06519,-0.0977 0.142873,-0.0977 0.194068,0 1.523062,-1.3986 1.620387,-1.705256 0.04329,-0.136371 0.133291,-0.247966 0.200142,-0.247966 0.0669,0 0.121485,-0.08778 0.121485,-0.195317 0,-0.107454 0.05869,-0.195334 0.130212,-0.195334 0.07152,0 0.130211,-0.113785 0.130211,-0.252723 0,-0.139109 0.05852,-0.288963 0.130211,-0.333228 0.07152,-0.04415 0.130212,-0.211795 0.130212,-0.372292 0,-0.160497 0.05407,-0.347464 0.120287,-0.415513 0.238367,-0.245143 0.346626,-2.04129 0.184058,-3.053516 -0.209946,-1.307162 -0.312404,-1.692782 -0.449734,-1.692782 -0.06331,0 -0.114983,-0.146467 -0.114983,-0.325546 0,-0.179045 -0.05869,-0.325528 -0.130211,-0.325528 -0.07152,0 -0.130212,-0.08743 -0.130212,-0.194342 0,-0.190133 -0.291974,-0.584137 -0.878952,-1.186138 -0.161181,-0.165288 -0.292984,-0.336616 -0.292984,-0.380796 0,-0.132436 -0.361717,-0.452369 -0.511555,-0.452369 -0.07666,0 -0.139451,-0.05852 -0.139451,-0.130211 0,-0.07152 -0.08778,-0.130212 -0.195317,-0.130212 -0.107454,0 -0.195317,-0.05852 -0.195317,-0.130211 0,-0.07152 -0.08778,-0.130211 -0.195334,-0.130211 -0.107454,0 -0.195317,-0.05869 -0.195317,-0.130212 0,-0.07152 -0.117207,-0.130211 -0.260423,-0.130211 -0.143215,0 -0.260439,-0.05869 -0.260439,-0.130211 0,-0.07152 -0.06434,-0.130212 -0.143045,-0.130212 -0.07871,0 -0.327735,-0.08333 -0.553424,-0.18517 -1.116087,-0.503667 -3.74119,-0.503667 -4.857277,0 -0.225672,0.101808 -0.474716,0.18517 -0.553407,0.18517 -0.07871,0 -0.143045,0.05852 -0.143045,0.130212 0,0.07152 -0.117207,0.130211 -0.260422,0.130211 -0.143216,0 -0.260423,0.05852 -0.260423,0.130211 0,0.07152 -0.08778,0.130212 -0.195334,0.130212 -0.107455,0 -0.195317,0.05869 -0.195317,0.130211 0,0.07169 -0.08778,0.130211 -0.195317,0.130211 -0.107455,0 -0.195317,0.05869 -0.195317,0.130212 0,0.07169 -0.0628,0.130211 -0.139451,0.130211 -0.148862,0 -0.511572,0.31954 -0.511572,0.450778 0,0.04329 -0.190423,0.278714 -0.423178,0.523087 -0.609513,0.639935 -0.748741,0.821016 -0.748741,0.973847 0,0.0746 -0.05869,0.135687 -0.130212,0.135687 -0.07152,0 -0.130211,0.175777 -0.130211,0.390634 0,0.214858 -0.05185,0.390651 -0.114983,0.390651 -0.137227,0 -0.234107,0.368733 -0.459812,1.748512 -0.172406,1.05413 -0.03627,3.069412 0.20726,3.069412 0.05886,0 0.107112,0.175777 0.107112,0.390634 0,0.214857 0.05852,0.390651 0.130211,0.390651 0.07152,0 0.130212,0.117207 0.130212,0.260423 0,0.143215 0.05852,0.260423 0.130211,0.260423 0.07152,0 0.130212,0.08795 0.130212,0.195334 0,0.107454 0.05458,0.195317 0.121485,0.195317 0.0669,0 0.156903,0.111561 0.200142,0.247966 0.09736,0.306656 1.426336,1.705256 1.620387,1.705256 0.07785,0 0.141504,0.04962 0.141504,0.110363 0,0.06074 0.234381,0.216123 0.520863,0.345308 0.286465,0.129185 0.520845,0.284583 0.520845,0.345308 0,0.06074 0.113786,0.110363 0.252758,0.110363 0.138937,0 0.288946,0.05869 0.333211,0.130212 0.04415,0.07152 0.252808,0.130211 0.463439,0.130211 0.210631,0 0.382952,0.05869 0.382952,0.130212 0,0.08008 0.651074,0.130211 1.692799,0.130211 1.041708,0 1.692782,-0.05013 1.692782,-0.130211 z m 11.328646,-9.635863 c 0,-0.07152 0.15331,-0.130212 0.340842,-0.130212 0.384885,0 1.35194,-0.873922 1.35194,-1.221728 0,-0.115838 0.05852,-0.210631 0.130211,-0.210631 0.07529,0 0.130211,-0.412347 0.130211,-0.976619 0,-0.564255 -0.0551,-0.976586 -0.130211,-0.976586 -0.07152,0 -0.130211,-0.117207 -0.130211,-0.26044 0,-0.143215 -0.05869,-0.260439 -0.130212,-0.260439 -0.07152,0 -0.130211,-0.0628 -0.130211,-0.139451 0,-0.07683 -0.08367,-0.223225 -0.186009,-0.325529 -0.102321,-0.102321 -0.248805,-0.186026 -0.325546,-0.186026 -0.07665,0 -0.139451,-0.05869 -0.139451,-0.130211 0,-0.07152 -0.117207,-0.130212 -0.26044,-0.130212 -0.143215,0 -0.260422,-0.05869 -0.260422,-0.130211 0,-0.07529 -0.414897,-0.130211 -0.984285,-0.130211 -0.623047,0 -0.954752,0.04774 -0.903831,0.130211 0.04415,0.07152 -0.04072,0.130211 -0.188815,0.130211 -0.28881,0 -1.048211,0.647002 -1.048211,0.893052 0,0.08179 -0.05852,0.148691 -0.130211,0.148691 -0.07152,0 -0.130211,0.146466 -0.130211,0.325528 0,0.179045 -0.05852,0.325546 -0.130212,0.325546 -0.07152,0 -0.130211,0.322277 -0.130211,0.716162 0,0.393919 0.05869,0.716197 0.130211,0.716197 0.07169,0 0.130212,0.124907 0.130212,0.27755 0,0.154166 0.253014,0.530582 0.56884,0.846408 0.315827,0.31581 0.692276,0.568824 0.846391,0.568824 0.152627,0 0.277551,0.05869 0.277551,0.130211 0,0.07152 0.322294,0.130212 0.716196,0.130212 0.393886,0 0.71618,-0.05852 0.71618,-0.130212 z"
       id="path3913"
       inkscape:connector-curvature="0" />
    <path
       sodipodi:type="arc"
       style="fill:#ffffff;fill-opacity:1;stroke:none"
       id="path3977"
       sodipodi:cx="41.113636"
       sodipodi:cy="46.159092"
       sodipodi:rx="5.0227275"
       sodipodi:ry="5.0227275"
       d="m 46.136364,46.159092 a 5.0227275,5.0227275 0 1 1 -10.045455,0 5.0227275,5.0227275 0 1 1 10.045455,0 z"
       transform="matrix(1.4660633,0,0,1.4660633,-19.820649,-21.808515)" />
    <path
       sodipodi:type="arc"
       style="fill:#ffffff;fill-opacity:1;stroke:none"
       id="path3977-1"
       sodipodi:cx="41.113636"
       sodipodi:cy="46.159092"
       sodipodi:rx="5.0227275"
       sodipodi:ry="5.0227275"
       d="m 46.136364,46.159092 a 5.0227275,5.0227275 0 1 1 -10.045455,0 5.0227275,5.0227275 0 1 1 10.045455,0 z"
       transform="matrix(0.58371039,0,0,0.58371039,28.796998,13.897368)" />
  </g>
</svg>
